<?xml version="1.0" standalone="no"?><!DOCTYPE svg PUBLIC "-//W3C//DTD SVG 1.1//EN" "http://www.w3.org/Graphics/SVG/1.1/DTD/svg11.dtd"><svg t="1731548476630" class="icon" viewBox="0 0 1024 1024" version="1.1" xmlns="http://www.w3.org/2000/svg" p-id="6034" xmlns:xlink="http://www.w3.org/1999/xlink" width="200" height="200"><path d="M819.2 426.666667m34.133333 0l68.266667 0q34.133333 0 34.133333 34.133333l0 0q0 34.133333-34.133333 34.133333l-68.266667 0q-34.133333 0-34.133333-34.133333l0 0q0-34.133333 34.133333-34.133333Z" fill="#fbc6c6" p-id="6035"></path><path d="M68.266667 426.666667m34.133333 0l68.266667 0q34.133333 0 34.133333 34.133333l0 0q0 34.133333-34.133333 34.133333l-68.266667 0q-34.133333 0-34.133333-34.133333l0 0q0-34.133333 34.133333-34.133333Z" fill="#fbc6c6" p-id="6036"></path><path d="M477.866667 153.6m0-34.133333l0-68.266667q0-34.133333 34.133333-34.133333l0 0q34.133333 0 34.133333 34.133333l0 68.266667q0 34.133333-34.133333 34.133333l0 0q-34.133333 0-34.133333-34.133333Z" fill="#fbc6c6" p-id="6037"></path><path d="M717.659466 216.869778m24.135911-24.135911l48.271823-48.271823q24.135911-24.135911 48.271823 0l0 0q24.135911 24.135911 0 48.271823l-48.271823 48.271823q-24.135911 24.135911-48.271823 0l0 0q-24.135911-24.135911 0-48.271823Z" fill="#fbc6c6" p-id="6038"></path><path d="M306.345056 216.871651m-24.135911-24.135911l-48.271823-48.271823q-24.135911-24.135911-48.271823 0l0 0q-24.135911 24.135911 0 48.271823l48.271823 48.271823q24.135911 24.135911 48.271823 0l0 0q24.135911-24.135911 0-48.271823Z" fill="#fbc6c6" p-id="6039"></path><path d="M512 204.8c141.380267 0 256 114.619733 256 256 0 67.208533-25.890133 128.3584-68.266667 174.0288V665.6a51.2 51.2 0 0 1-51.2 51.2H375.466667a51.2 51.2 0 0 1-51.2-51.2v-30.754133c-42.359467-45.6704-68.266667-106.837333-68.266667-174.045867 0-141.380267 114.619733-256 256-256z m0 68.266667c-103.68 0-187.733333 84.053333-187.733333 187.733333 0 46.045867 16.554667 89.361067 46.1312 123.255467l3.925333 4.369066L392.533333 608.085333V648.533333h238.933334l0.017066-40.4992 18.210134-19.626666A186.794667 186.794667 0 0 0 699.733333 460.8c0-103.68-84.053333-187.733333-187.733333-187.733333zM631.466667 768a68.266667 68.266667 0 0 1 68.266666 68.266667v51.2a68.266667 68.266667 0 0 1-68.266666 68.266666H392.533333a68.266667 68.266667 0 0 1-68.266666-68.266666v-51.2a68.266667 68.266667 0 0 1 68.266666-68.266667h238.933334z m0 68.266667H392.533333v51.2h238.933334v-51.2z" fill="#fbc6c6" p-id="6040"></path></svg>