<?xml version="1.0" standalone="no"?><!DOCTYPE svg PUBLIC "-//W3C//DTD SVG 1.1//EN" "http://www.w3.org/Graphics/SVG/1.1/DTD/svg11.dtd"><svg t="1731548101724" class="icon" viewBox="0 0 1024 1024" version="1.1" xmlns="http://www.w3.org/2000/svg" p-id="4501" xmlns:xlink="http://www.w3.org/1999/xlink" width="200" height="200"><path d="M512 93.090909c43.163152 0 310.30303 272.911515 310.30303 489.223758C822.30303 757.201455 683.349333 899.878788 512 899.878788S201.69697 757.201455 201.69697 582.314667C201.69697 350.363152 460.737939 93.090909 512 93.090909z" fill="#ffffff" p-id="4502" data-spm-anchor-id="a313x.search_index.0.i1.28653a81o7A9Td" class=""></path><path d="M512 93.090909c43.163152 0 310.30303 272.911515 310.30303 489.223758C822.30303 757.201455 683.349333 899.878788 512 899.878788S201.69697 757.201455 201.69697 582.314667C201.69697 350.363152 460.737939 93.090909 512 93.090909z m-2.203152 31.402667l-1.024 0.341333c-19.921455 7.385212-89.801697 70.407758-146.46303 144.694303C282.158545 374.597818 232.727273 486.43103 232.727273 582.314667 232.727273 740.38303 358.120727 868.848485 512 868.848485s279.272727-128.465455 279.272727-286.533818c0-88.374303-50.703515-198.811152-132.654545-306.982788-32.954182-43.504485-68.980364-83.626667-101.065697-113.508849a350.952727 350.952727 0 0 0-37.422546-31.030303 101.996606 101.996606 0 0 0-8.657454-5.430303l-1.675637-0.868848z" fill="#fbc6c6" p-id="4503" data-spm-anchor-id="a313x.search_index.0.i2.28653a81o7A9Td" class=""></path><path d="M665.6 435.975758a217.212121 217.212121 0 0 1-307.2 307.2l3.10303-3.103031 300.125091-300.125091z" fill="#fbc6c6" p-id="4504" data-spm-anchor-id="a313x.search_index.0.i0.28653a81o7A9Td" class=""></path></svg>